<mxfile host="app.diagrams.net" modified="2021-11-30T12:18:21.198Z" agent="5.0 (Macintosh; Intel Mac OS X 10_15_7) AppleWebKit/537.36 (KHTML, like Gecko) Chrome/95.0.4638.69 Safari/537.36" etag="0unS7FVfG7FAZ7EAxVF4" version="15.7.0" type="github">
  <diagram id="WysSDMZiBoA45H_Ge83W" name="Page-1">
    <mxGraphModel dx="946" dy="588" grid="1" gridSize="10" guides="1" tooltips="1" connect="1" arrows="1" fold="1" page="1" pageScale="1" pageWidth="827" pageHeight="1169" math="0" shadow="0">
      <root>
        <mxCell id="0" />
        <mxCell id="1" parent="0" />
        <mxCell id="HgGVAh2WgaMXoRP4tEBU-4" value="" style="shape=umlLifeline;participant=umlActor;perimeter=lifelinePerimeter;whiteSpace=wrap;html=1;container=1;collapsible=0;recursiveResize=0;verticalAlign=top;spacingTop=36;outlineConnect=0;" parent="1" vertex="1">
          <mxGeometry x="260" y="70" width="20" height="490" as="geometry" />
        </mxCell>
        <mxCell id="HgGVAh2WgaMXoRP4tEBU-9" value="点击 GitHub 或者其他三方登录" style="html=1;verticalAlign=bottom;endArrow=block;rounded=0;" parent="HgGVAh2WgaMXoRP4tEBU-4" edge="1">
          <mxGeometry width="80" relative="1" as="geometry">
            <mxPoint x="15" y="90" as="sourcePoint" />
            <mxPoint x="214.5" y="90" as="targetPoint" />
            <Array as="points">
              <mxPoint x="85" y="90" />
              <mxPoint x="135" y="90" />
            </Array>
          </mxGeometry>
        </mxCell>
        <mxCell id="HgGVAh2WgaMXoRP4tEBU-26" value="输入登陆码" style="html=1;verticalAlign=bottom;endArrow=block;rounded=0;" parent="HgGVAh2WgaMXoRP4tEBU-4" edge="1">
          <mxGeometry width="80" relative="1" as="geometry">
            <mxPoint x="13" y="354" as="sourcePoint" />
            <mxPoint x="212.5" y="354" as="targetPoint" />
          </mxGeometry>
        </mxCell>
        <mxCell id="HgGVAh2WgaMXoRP4tEBU-5" value="LaTeX 网站" style="shape=umlLifeline;perimeter=lifelinePerimeter;whiteSpace=wrap;html=1;container=1;collapsible=0;recursiveResize=0;outlineConnect=0;" parent="1" vertex="1">
          <mxGeometry x="425" y="70" width="100" height="490" as="geometry" />
        </mxCell>
        <mxCell id="HgGVAh2WgaMXoRP4tEBU-10" value="调用&amp;nbsp;authorize_uri" style="html=1;verticalAlign=bottom;endArrow=block;rounded=0;" parent="HgGVAh2WgaMXoRP4tEBU-5" target="HgGVAh2WgaMXoRP4tEBU-6" edge="1">
          <mxGeometry width="80" relative="1" as="geometry">
            <mxPoint x="50" y="130" as="sourcePoint" />
            <mxPoint x="130" y="130" as="targetPoint" />
          </mxGeometry>
        </mxCell>
        <mxCell id="HgGVAh2WgaMXoRP4tEBU-23" value="" style="html=1;points=[];perimeter=orthogonalPerimeter;" parent="HgGVAh2WgaMXoRP4tEBU-5" vertex="1">
          <mxGeometry x="45" y="270" width="10" height="40" as="geometry" />
        </mxCell>
        <mxCell id="HgGVAh2WgaMXoRP4tEBU-24" value="存储登录码到&lt;br&gt;localstorage" style="edgeStyle=orthogonalEdgeStyle;html=1;align=left;spacingLeft=2;endArrow=block;rounded=0;entryX=1;entryY=0;" parent="HgGVAh2WgaMXoRP4tEBU-5" edge="1">
          <mxGeometry relative="1" as="geometry">
            <mxPoint x="50" y="271" as="sourcePoint" />
            <Array as="points">
              <mxPoint x="50" y="261" />
              <mxPoint x="80" y="261" />
              <mxPoint x="80" y="291" />
            </Array>
            <mxPoint x="59" y="291" as="targetPoint" />
          </mxGeometry>
        </mxCell>
        <mxCell id="HgGVAh2WgaMXoRP4tEBU-27" value="" style="html=1;points=[];perimeter=orthogonalPerimeter;" parent="HgGVAh2WgaMXoRP4tEBU-5" vertex="1">
          <mxGeometry x="45" y="420" width="10" height="40" as="geometry" />
        </mxCell>
        <mxCell id="HgGVAh2WgaMXoRP4tEBU-28" value="校验跟 localstorage&lt;br&gt;里是否相同&lt;br&gt;是的话，全部开放&lt;br&gt;不是的话，完全不开放" style="edgeStyle=orthogonalEdgeStyle;html=1;align=left;spacingLeft=2;endArrow=block;rounded=0;entryX=1;entryY=0;" parent="HgGVAh2WgaMXoRP4tEBU-5" target="HgGVAh2WgaMXoRP4tEBU-27" edge="1">
          <mxGeometry relative="1" as="geometry">
            <mxPoint x="50" y="360" as="sourcePoint" />
            <Array as="points">
              <mxPoint x="80" y="360" />
            </Array>
          </mxGeometry>
        </mxCell>
        <mxCell id="HgGVAh2WgaMXoRP4tEBU-6" value="&lt;span style=&quot;text-align: left&quot;&gt;权限认证后台服务&lt;/span&gt;" style="shape=umlLifeline;perimeter=lifelinePerimeter;whiteSpace=wrap;html=1;container=1;collapsible=0;recursiveResize=0;outlineConnect=0;" parent="1" vertex="1">
          <mxGeometry x="625" y="70" width="100" height="490" as="geometry" />
        </mxCell>
        <mxCell id="HgGVAh2WgaMXoRP4tEBU-11" value="" style="html=1;points=[];perimeter=orthogonalPerimeter;" parent="HgGVAh2WgaMXoRP4tEBU-6" vertex="1">
          <mxGeometry x="45" y="185" width="10" height="40" as="geometry" />
        </mxCell>
        <mxCell id="HgGVAh2WgaMXoRP4tEBU-12" value="1. oauth 认证&lt;br&gt;2. 获取用户信息&lt;br&gt;如果是白名单用户则生成登陆码&lt;br&gt;如果不是白名单用户，直接跳转到课程购买图片&lt;br&gt;3. 生成随机登陆码" style="edgeStyle=orthogonalEdgeStyle;html=1;align=left;spacingLeft=2;endArrow=block;rounded=0;entryX=1;entryY=0;" parent="HgGVAh2WgaMXoRP4tEBU-6" target="HgGVAh2WgaMXoRP4tEBU-11" edge="1">
          <mxGeometry relative="1" as="geometry">
            <mxPoint x="50" y="130" as="sourcePoint" />
            <Array as="points">
              <mxPoint x="80" y="130" />
            </Array>
          </mxGeometry>
        </mxCell>
        <mxCell id="HgGVAh2WgaMXoRP4tEBU-19" value="redirect 到登陆码展示界面&amp;nbsp;" style="html=1;verticalAlign=bottom;endArrow=block;rounded=0;" parent="1" edge="1">
          <mxGeometry width="80" relative="1" as="geometry">
            <mxPoint x="674.5" y="295" as="sourcePoint" />
            <mxPoint x="474.5" y="295" as="targetPoint" />
          </mxGeometry>
        </mxCell>
        <mxCell id="HgGVAh2WgaMXoRP4tEBU-22" value="展示登陆码" style="html=1;verticalAlign=bottom;endArrow=block;rounded=0;" parent="1" edge="1">
          <mxGeometry width="80" relative="1" as="geometry">
            <mxPoint x="474.5" y="383" as="sourcePoint" />
            <mxPoint x="269.5" y="383" as="targetPoint" />
          </mxGeometry>
        </mxCell>
        <mxCell id="LCmJqE01S7JY0HaJgBqR-1" value="&lt;h1&gt;权限方案一&lt;/h1&gt;&lt;p&gt;&lt;span style=&quot;font-weight: 700&quot;&gt;用户通过第三方方式登录，&lt;/span&gt;&lt;br style=&quot;padding: 0px ; margin: 0px ; font-weight: 700&quot;&gt;&lt;span style=&quot;font-weight: 700&quot;&gt;第三方账号需要在我们的白名单里&lt;/span&gt;&lt;br&gt;&lt;/p&gt;&lt;p&gt;&lt;b&gt;用户每次登录都使用新的登陆码&lt;/b&gt;&lt;/p&gt;&lt;p style=&quot;text-align: center&quot;&gt;&lt;b&gt;&lt;br&gt;&lt;/b&gt;&lt;/p&gt;" style="text;html=1;strokeColor=none;fillColor=none;spacing=5;spacingTop=-20;whiteSpace=wrap;overflow=hidden;rounded=0;" vertex="1" parent="1">
          <mxGeometry x="30" y="60" width="190" height="120" as="geometry" />
        </mxCell>
        <mxCell id="LCmJqE01S7JY0HaJgBqR-3" value="" style="shape=umlLifeline;participant=umlActor;perimeter=lifelinePerimeter;whiteSpace=wrap;html=1;container=1;collapsible=0;recursiveResize=0;verticalAlign=top;spacingTop=36;outlineConnect=0;" vertex="1" parent="1">
          <mxGeometry x="260" y="610" width="20" height="310" as="geometry" />
        </mxCell>
        <mxCell id="LCmJqE01S7JY0HaJgBqR-4" value="点击登录，提示输入登陆码" style="html=1;verticalAlign=bottom;endArrow=block;rounded=0;" edge="1" parent="LCmJqE01S7JY0HaJgBqR-3">
          <mxGeometry width="80" relative="1" as="geometry">
            <mxPoint x="15" y="90" as="sourcePoint" />
            <mxPoint x="214.5" y="90" as="targetPoint" />
            <Array as="points">
              <mxPoint x="85" y="90" />
              <mxPoint x="135" y="90" />
            </Array>
          </mxGeometry>
        </mxCell>
        <mxCell id="LCmJqE01S7JY0HaJgBqR-6" value="LaTeX 网站" style="shape=umlLifeline;perimeter=lifelinePerimeter;whiteSpace=wrap;html=1;container=1;collapsible=0;recursiveResize=0;outlineConnect=0;" vertex="1" parent="1">
          <mxGeometry x="425" y="610" width="100" height="310" as="geometry" />
        </mxCell>
        <mxCell id="LCmJqE01S7JY0HaJgBqR-7" value="调用后台验证系统" style="html=1;verticalAlign=bottom;endArrow=block;rounded=0;" edge="1" parent="LCmJqE01S7JY0HaJgBqR-6" target="LCmJqE01S7JY0HaJgBqR-12">
          <mxGeometry width="80" relative="1" as="geometry">
            <mxPoint x="50" y="130" as="sourcePoint" />
            <mxPoint x="130" y="130" as="targetPoint" />
          </mxGeometry>
        </mxCell>
        <mxCell id="LCmJqE01S7JY0HaJgBqR-12" value="&lt;span style=&quot;text-align: left&quot;&gt;权限认证后台服务&lt;/span&gt;" style="shape=umlLifeline;perimeter=lifelinePerimeter;whiteSpace=wrap;html=1;container=1;collapsible=0;recursiveResize=0;outlineConnect=0;" vertex="1" parent="1">
          <mxGeometry x="625" y="610" width="100" height="310" as="geometry" />
        </mxCell>
        <mxCell id="LCmJqE01S7JY0HaJgBqR-13" value="" style="html=1;points=[];perimeter=orthogonalPerimeter;" vertex="1" parent="LCmJqE01S7JY0HaJgBqR-12">
          <mxGeometry x="45" y="185" width="10" height="40" as="geometry" />
        </mxCell>
        <mxCell id="LCmJqE01S7JY0HaJgBqR-14" value="验证登录码&lt;br&gt;是否正确，如果&lt;br&gt;正确，则销毁此登陆码&lt;br&gt;保证不会被二次使用" style="edgeStyle=orthogonalEdgeStyle;html=1;align=left;spacingLeft=2;endArrow=block;rounded=0;entryX=1;entryY=0;" edge="1" parent="LCmJqE01S7JY0HaJgBqR-12" target="LCmJqE01S7JY0HaJgBqR-13">
          <mxGeometry relative="1" as="geometry">
            <mxPoint x="50" y="130" as="sourcePoint" />
            <Array as="points">
              <mxPoint x="80" y="130" />
            </Array>
          </mxGeometry>
        </mxCell>
        <mxCell id="LCmJqE01S7JY0HaJgBqR-15" value="开放所有的页面的权限" style="html=1;verticalAlign=bottom;endArrow=block;rounded=0;" edge="1" parent="1">
          <mxGeometry width="80" relative="1" as="geometry">
            <mxPoint x="674.5" y="835" as="sourcePoint" />
            <mxPoint x="474.5" y="835" as="targetPoint" />
          </mxGeometry>
        </mxCell>
        <mxCell id="LCmJqE01S7JY0HaJgBqR-19" value="用户看到文章与资源" style="html=1;verticalAlign=bottom;endArrow=block;rounded=0;" edge="1" parent="1">
          <mxGeometry width="80" relative="1" as="geometry">
            <mxPoint x="470" y="880" as="sourcePoint" />
            <mxPoint x="270" y="880" as="targetPoint" />
            <mxPoint as="offset" />
          </mxGeometry>
        </mxCell>
        <mxCell id="LCmJqE01S7JY0HaJgBqR-20" value="&lt;h1&gt;权限方案二&lt;/h1&gt;&lt;p&gt;&lt;span style=&quot;font-weight: 700&quot;&gt;用户通过直接输入登陆码登录，&lt;/span&gt;&lt;br style=&quot;padding: 0px ; margin: 0px ; font-weight: 700&quot;&gt;&lt;b&gt;一个登录码只能使用一次&lt;/b&gt;&lt;/p&gt;&lt;p&gt;&lt;b&gt;用完之后登录码即销毁，不可用用第二次，如果用户想在多设备运行，需要多个机器码&lt;/b&gt;&lt;/p&gt;&lt;p style=&quot;text-align: center&quot;&gt;&lt;b&gt;&lt;br&gt;&lt;/b&gt;&lt;/p&gt;" style="text;html=1;strokeColor=none;fillColor=none;spacing=5;spacingTop=-20;whiteSpace=wrap;overflow=hidden;rounded=0;" vertex="1" parent="1">
          <mxGeometry x="20" y="610" width="190" height="120" as="geometry" />
        </mxCell>
      </root>
    </mxGraphModel>
  </diagram>
</mxfile>
